<?xml version="1.0" encoding="UTF-8" standalone="no"?>
<svg width="800px" height="300px" viewBox="0 0 800 300" version="1.1" xmlns="http://www.w3.org/2000/svg" xmlns:xlink="http://www.w3.org/1999/xlink">
    <!-- Generator: Sketch 3.8.1 (29687) - http://www.bohemiancoding.com/sketch -->
    <title>logo</title>
    <desc>Created with Sketch.</desc>
    <defs></defs>
    <g id="Page-1" stroke="none" stroke-width="1" fill="none" fill-rule="evenodd">
        <g id="Artboard-7" transform="translate(-58.000000, -54.000000)">
            <g id="logo" transform="translate(74.000000, 57.000000)">
                <path d="M183.4789,243.317961 L188.8789,243.317961 L188.8789,247.397961 L188.9989,247.397961 C190.038905,245.877954 191.468891,244.697965 193.2889,243.857961 C195.108909,243.017957 196.97889,242.597961 198.8989,242.597961 C201.098911,242.597961 203.088891,242.977957 204.8689,243.737961 C206.648909,244.497965 208.168894,245.557954 209.4289,246.917961 C210.688906,248.277968 211.658897,249.867952 212.3389,251.687961 C213.018903,253.50797 213.3589,255.457951 213.3589,257.537961 C213.3589,259.657972 213.018903,261.627952 212.3389,263.447961 C211.658897,265.26797 210.688906,266.847954 209.4289,268.187961 C208.168894,269.527968 206.648909,270.577957 204.8689,271.337961 C203.088891,272.097965 201.098911,272.477961 198.8989,272.477961 C196.85889,272.477961 194.938909,272.047965 193.1389,271.187961 C191.338891,270.327957 189.958905,269.157969 188.9989,267.677961 L188.8789,267.677961 L188.8789,288.677961 L183.4789,288.677961 L183.4789,243.317961 Z M198.2389,247.637961 C196.798893,247.637961 195.498906,247.887959 194.3389,248.387961 C193.178894,248.887964 192.198904,249.567957 191.3989,250.427961 C190.598896,251.287965 189.978902,252.327955 189.5389,253.547961 C189.098898,254.767967 188.8789,256.097954 188.8789,257.537961 C188.8789,258.977968 189.098898,260.307955 189.5389,261.527961 C189.978902,262.747967 190.598896,263.787957 191.3989,264.647961 C192.198904,265.507965 193.178894,266.187959 194.3389,266.687961 C195.498906,267.187964 196.798893,267.437961 198.2389,267.437961 C199.678907,267.437961 200.978894,267.187964 202.1389,266.687961 C203.298906,266.187959 204.278896,265.507965 205.0789,264.647961 C205.878904,263.787957 206.498898,262.747967 206.9389,261.527961 C207.378902,260.307955 207.5989,258.977968 207.5989,257.537961 C207.5989,256.097954 207.378902,254.767967 206.9389,253.547961 C206.498898,252.327955 205.878904,251.287965 205.0789,250.427961 C204.278896,249.567957 203.298906,248.887964 202.1389,248.387961 C200.978894,247.887959 199.678907,247.637961 198.2389,247.637961 L198.2389,247.637961 Z M220.1389,243.317961 L225.5389,243.317961 L225.5389,247.697961 L225.6589,247.697961 C226.018902,246.937957 226.498897,246.247964 227.0989,245.627961 C227.698903,245.007958 228.368896,244.477963 229.1089,244.037961 C229.848904,243.597959 230.658896,243.247962 231.5389,242.987961 C232.418904,242.72796 233.298896,242.597961 234.1789,242.597961 C235.058904,242.597961 235.858896,242.71796 236.5789,242.957961 L236.3389,248.777961 C235.898898,248.657961 235.458902,248.557962 235.0189,248.477961 C234.578898,248.397961 234.138902,248.357961 233.6989,248.357961 C231.058887,248.357961 229.038907,249.097954 227.6389,250.577961 C226.238893,252.057969 225.5389,254.357946 225.5389,257.477961 L225.5389,271.757961 L220.1389,271.757961 L220.1389,243.317961 Z M244.5589,257.537961 C244.5589,258.977968 244.778898,260.307955 245.2189,261.527961 C245.658902,262.747967 246.278896,263.787957 247.0789,264.647961 C247.878904,265.507965 248.858894,266.187959 250.0189,266.687961 C251.178906,267.187964 252.478893,267.437961 253.9189,267.437961 C255.358907,267.437961 256.658894,267.187964 257.8189,266.687961 C258.978906,266.187959 259.958896,265.507965 260.7589,264.647961 C261.558904,263.787957 262.178898,262.747967 262.6189,261.527961 C263.058902,260.307955 263.2789,258.977968 263.2789,257.537961 C263.2789,256.097954 263.058902,254.767967 262.6189,253.547961 C262.178898,252.327955 261.558904,251.287965 260.7589,250.427961 C259.958896,249.567957 258.978906,248.887964 257.8189,248.387961 C256.658894,247.887959 255.358907,247.637961 253.9189,247.637961 C252.478893,247.637961 251.178906,247.887959 250.0189,248.387961 C248.858894,248.887964 247.878904,249.567957 247.0789,250.427961 C246.278896,251.287965 245.658902,252.327955 245.2189,253.547961 C244.778898,254.767967 244.5589,256.097954 244.5589,257.537961 L244.5589,257.537961 Z M238.7989,257.537961 C238.7989,255.457951 239.188896,253.51797 239.9689,251.717961 C240.748904,249.917952 241.818893,248.337968 243.1789,246.977961 C244.538907,245.617954 246.138891,244.547965 247.9789,243.767961 C249.818909,242.987957 251.798889,242.597961 253.9189,242.597961 C256.038911,242.597961 258.018891,242.987957 259.8589,243.767961 C261.698909,244.547965 263.298893,245.617954 264.6589,246.977961 C266.018907,248.337968 267.088896,249.917952 267.8689,251.717961 C268.648904,253.51797 269.0389,255.457951 269.0389,257.537961 C269.0389,259.617972 268.648904,261.567952 267.8689,263.387961 C267.088896,265.20797 266.018907,266.787954 264.6589,268.127961 C263.298893,269.467968 261.698909,270.527957 259.8589,271.307961 C258.018891,272.087965 256.038911,272.477961 253.9189,272.477961 C251.798889,272.477961 249.818909,272.087965 247.9789,271.307961 C246.138891,270.527957 244.538907,269.467968 243.1789,268.127961 C241.818893,266.787954 240.748904,265.20797 239.9689,263.387961 C239.188896,261.567952 238.7989,259.617972 238.7989,257.537961 L238.7989,257.537961 Z M296.1589,250.877961 C295.158895,249.837956 294.108905,249.047964 293.0089,248.507961 C291.908895,247.967958 290.598908,247.697961 289.0789,247.697961 C287.598893,247.697961 286.308906,247.967958 285.2089,248.507961 C284.108895,249.047964 283.188904,249.787956 282.4489,250.727961 C281.708896,251.667966 281.148902,252.747955 280.7689,253.967961 C280.388898,255.187967 280.1989,256.457955 280.1989,257.777961 C280.1989,259.097968 280.418898,260.347955 280.8589,261.527961 C281.298902,262.707967 281.918896,263.737957 282.7189,264.617961 C283.518904,265.497966 284.478894,266.187959 285.5989,266.687961 C286.718906,267.187964 287.978893,267.437961 289.3789,267.437961 C290.898908,267.437961 292.198895,267.167964 293.2789,266.627961 C294.358905,266.087958 295.358895,265.297966 296.2789,264.257961 L300.1189,268.097961 C298.718893,269.657969 297.088909,270.777958 295.2289,271.457961 C293.368891,272.137965 291.39891,272.477961 289.3189,272.477961 C287.118889,272.477961 285.108909,272.117965 283.2889,271.397961 C281.468891,270.677958 279.898907,269.667968 278.5789,268.367961 C277.258893,267.067955 276.238904,265.50797 275.5189,263.687961 C274.798896,261.867952 274.4389,259.857972 274.4389,257.657961 C274.4389,255.45795 274.798896,253.43797 275.5189,251.597961 C276.238904,249.757952 277.248894,248.177968 278.5489,246.857961 C279.848906,245.537955 281.408891,244.507965 283.2289,243.767961 C285.048909,243.027957 287.078889,242.657961 289.3189,242.657961 C291.39891,242.657961 293.388891,243.027957 295.2889,243.767961 C297.18891,244.507965 298.838893,245.637954 300.2389,247.157961 L296.1589,250.877961 Z M308.8189,259.517961 C308.8189,260.757967 309.088897,261.887956 309.6289,262.907961 C310.168903,263.927966 310.878896,264.797958 311.7589,265.517961 C312.638904,266.237965 313.658894,266.797959 314.8189,267.197961 C315.978906,267.597963 317.178894,267.797961 318.4189,267.797961 C320.098908,267.797961 321.558894,267.407965 322.7989,266.627961 C324.038906,265.847957 325.178895,264.817968 326.2189,263.537961 L330.2989,266.657961 C327.298885,270.537981 323.098927,272.477961 317.6989,272.477961 C315.458889,272.477961 313.428909,272.097965 311.6089,271.337961 C309.788891,270.577957 308.248906,269.527968 306.9889,268.187961 C305.728894,266.847954 304.758903,265.26797 304.0789,263.447961 C303.398897,261.627952 303.0589,259.657972 303.0589,257.537961 C303.0589,255.417951 303.428896,253.44797 304.1689,251.627961 C304.908904,249.807952 305.928894,248.227968 307.2289,246.887961 C308.528907,245.547954 310.078891,244.497965 311.8789,243.737961 C313.678909,242.977957 315.638889,242.597961 317.7589,242.597961 C320.278913,242.597961 322.408891,243.037957 324.1489,243.917961 C325.888909,244.797966 327.318894,245.947954 328.4389,247.367961 C329.558906,248.787968 330.368898,250.387952 330.8689,252.167961 C331.368902,253.94797 331.6189,255.757952 331.6189,257.597961 L331.6189,259.517961 L308.8189,259.517961 Z M325.8589,255.197961 C325.8189,253.997955 325.628902,252.897966 325.2889,251.897961 C324.948898,250.897956 324.438903,250.027965 323.7589,249.287961 C323.078897,248.547957 322.228905,247.967963 321.2089,247.547961 C320.188895,247.127959 318.998907,246.917961 317.6389,246.917961 C316.318893,246.917961 315.108905,247.167959 314.0089,247.667961 C312.908895,248.167964 311.978904,248.817957 311.2189,249.617961 C310.458896,250.417965 309.868902,251.307956 309.4489,252.287961 C309.028898,253.267966 308.8189,254.237956 308.8189,255.197961 L325.8589,255.197961 Z M353.2189,250.457961 C352.578897,249.657957 351.788905,248.987964 350.8489,248.447961 C349.908895,247.907958 348.758907,247.637961 347.3989,247.637961 C346.118894,247.637961 345.008905,247.907958 344.0689,248.447961 C343.128895,248.987964 342.6589,249.777956 342.6589,250.817961 C342.6589,251.657965 342.928897,252.337959 343.4689,252.857961 C344.008903,253.377964 344.648896,253.79796 345.3889,254.117961 C346.128904,254.437963 346.918896,254.67796 347.7589,254.837961 C348.598904,254.997962 349.318897,255.137961 349.9189,255.257961 C351.078906,255.537963 352.168895,255.877959 353.1889,256.277961 C354.208905,256.677963 355.088896,257.197958 355.8289,257.837961 C356.568904,258.477964 357.148898,259.257957 357.5689,260.177961 C357.988902,261.097966 358.1989,262.217955 358.1989,263.537961 C358.1989,265.137969 357.858903,266.507955 357.1789,267.647961 C356.498897,268.787967 355.618905,269.717958 354.5389,270.437961 C353.458895,271.157965 352.228907,271.67796 350.8489,271.997961 C349.468893,272.317963 348.078907,272.477961 346.6789,272.477961 C344.318888,272.477961 342.248909,272.117965 340.4689,271.397961 C338.688891,270.677958 337.098907,269.357971 335.6989,267.437961 L339.7789,264.077961 C340.658904,264.957966 341.638895,265.737958 342.7189,266.417961 C343.798905,267.097965 345.118892,267.437961 346.6789,267.437961 C347.358903,267.437961 348.048897,267.367962 348.7489,267.227961 C349.448904,267.08796 350.068897,266.867963 350.6089,266.567961 C351.148903,266.26796 351.588898,265.887963 351.9289,265.427961 C352.268902,264.967959 352.4389,264.437964 352.4389,263.837961 C352.4389,263.037957 352.188903,262.377964 351.6889,261.857961 C351.188898,261.337959 350.588904,260.927963 349.8889,260.627961 C349.188897,260.32796 348.448904,260.087962 347.6689,259.907961 C346.888896,259.72796 346.198903,259.577962 345.5989,259.457961 C344.438894,259.17796 343.338905,258.857963 342.2989,258.497961 C341.258895,258.137959 340.338904,257.657964 339.5389,257.057961 C338.738896,256.457958 338.098902,255.697966 337.6189,254.777961 C337.138898,253.857957 336.8989,252.717968 336.8989,251.357961 C336.8989,249.877954 337.208897,248.587967 337.8289,247.487961 C338.448903,246.387956 339.268895,245.477965 340.2889,244.757961 C341.308905,244.037958 342.468894,243.497963 343.7689,243.137961 C345.068907,242.777959 346.378893,242.597961 347.6989,242.597961 C349.61891,242.597961 351.458891,242.957958 353.2189,243.677961 C354.978909,244.397965 356.378895,245.597953 357.4189,247.277961 L353.2189,250.457961 Z M379.8589,250.457961 C379.218897,249.657957 378.428905,248.987964 377.4889,248.447961 C376.548895,247.907958 375.398907,247.637961 374.0389,247.637961 C372.758894,247.637961 371.648905,247.907958 370.7089,248.447961 C369.768895,248.987964 369.2989,249.777956 369.2989,250.817961 C369.2989,251.657965 369.568897,252.337959 370.1089,252.857961 C370.648903,253.377964 371.288896,253.79796 372.0289,254.117961 C372.768904,254.437963 373.558896,254.67796 374.3989,254.837961 C375.238904,254.997962 375.958897,255.137961 376.5589,255.257961 C377.718906,255.537963 378.808895,255.877959 379.8289,256.277961 C380.848905,256.677963 381.728896,257.197958 382.4689,257.837961 C383.208904,258.477964 383.788898,259.257957 384.2089,260.177961 C384.628902,261.097966 384.8389,262.217955 384.8389,263.537961 C384.8389,265.137969 384.498903,266.507955 383.8189,267.647961 C383.138897,268.787967 382.258905,269.717958 381.1789,270.437961 C380.098895,271.157965 378.868907,271.67796 377.4889,271.997961 C376.108893,272.317963 374.718907,272.477961 373.3189,272.477961 C370.958888,272.477961 368.888909,272.117965 367.1089,271.397961 C365.328891,270.677958 363.738907,269.357971 362.3389,267.437961 L366.4189,264.077961 C367.298904,264.957966 368.278895,265.737958 369.3589,266.417961 C370.438905,267.097965 371.758892,267.437961 373.3189,267.437961 C373.998903,267.437961 374.688897,267.367962 375.3889,267.227961 C376.088904,267.08796 376.708897,266.867963 377.2489,266.567961 C377.788903,266.26796 378.228898,265.887963 378.5689,265.427961 C378.908902,264.967959 379.0789,264.437964 379.0789,263.837961 C379.0789,263.037957 378.828903,262.377964 378.3289,261.857961 C377.828898,261.337959 377.228904,260.927963 376.5289,260.627961 C375.828897,260.32796 375.088904,260.087962 374.3089,259.907961 C373.528896,259.72796 372.838903,259.577962 372.2389,259.457961 C371.078894,259.17796 369.978905,258.857963 368.9389,258.497961 C367.898895,258.137959 366.978904,257.657964 366.1789,257.057961 C365.378896,256.457958 364.738902,255.697966 364.2589,254.777961 C363.778898,253.857957 363.5389,252.717968 363.5389,251.357961 C363.5389,249.877954 363.848897,248.587967 364.4689,247.487961 C365.088903,246.387956 365.908895,245.477965 366.9289,244.757961 C367.948905,244.037958 369.108894,243.497963 370.4089,243.137961 C371.708907,242.777959 373.018893,242.597961 374.3389,242.597961 C376.25891,242.597961 378.098891,242.957958 379.8589,243.677961 C381.618909,244.397965 383.018895,245.597953 384.0589,247.277961 L379.8589,250.457961 Z M412.1389,259.517961 C412.1389,260.757967 412.408897,261.887956 412.9489,262.907961 C413.488903,263.927966 414.198896,264.797958 415.0789,265.517961 C415.958904,266.237965 416.978894,266.797959 418.1389,267.197961 C419.298906,267.597963 420.498894,267.797961 421.7389,267.797961 C423.418908,267.797961 424.878894,267.407965 426.1189,266.627961 C427.358906,265.847957 428.498895,264.817968 429.5389,263.537961 L433.6189,266.657961 C430.618885,270.537981 426.418927,272.477961 421.0189,272.477961 C418.778889,272.477961 416.748909,272.097965 414.9289,271.337961 C413.108891,270.577957 411.568906,269.527968 410.3089,268.187961 C409.048894,266.847954 408.078903,265.26797 407.3989,263.447961 C406.718897,261.627952 406.3789,259.657972 406.3789,257.537961 C406.3789,255.417951 406.748896,253.44797 407.4889,251.627961 C408.228904,249.807952 409.248894,248.227968 410.5489,246.887961 C411.848906,245.547954 413.398891,244.497965 415.1989,243.737961 C416.998909,242.977957 418.958889,242.597961 421.0789,242.597961 C423.598913,242.597961 425.728891,243.037957 427.4689,243.917961 C429.208909,244.797966 430.638894,245.947954 431.7589,247.367961 C432.878906,248.787968 433.688898,250.387952 434.1889,252.167961 C434.688903,253.94797 434.9389,255.757952 434.9389,257.597961 L434.9389,259.517961 L412.1389,259.517961 Z M429.1789,255.197961 C429.1389,253.997955 428.948902,252.897966 428.6089,251.897961 C428.268898,250.897956 427.758903,250.027965 427.0789,249.287961 C426.398897,248.547957 425.548905,247.967963 424.5289,247.547961 C423.508895,247.127959 422.318907,246.917961 420.9589,246.917961 C419.638893,246.917961 418.428906,247.167959 417.3289,247.667961 C416.228895,248.167964 415.298904,248.817957 414.5389,249.617961 C413.778896,250.417965 413.188902,251.307956 412.7689,252.287961 C412.348898,253.267966 412.1389,254.237956 412.1389,255.197961 L429.1789,255.197961 Z M441.4189,243.317961 L446.8189,243.317961 L446.8189,247.697961 L446.9389,247.697961 C447.618903,246.177954 448.798892,244.947966 450.4789,244.007961 C452.158908,243.067956 454.098889,242.597961 456.2989,242.597961 C457.658907,242.597961 458.968894,242.807959 460.2289,243.227961 C461.488906,243.647963 462.588895,244.297957 463.5289,245.177961 C464.468905,246.057966 465.218897,247.187954 465.7789,248.567961 C466.338903,249.947968 466.6189,251.577952 466.6189,253.457961 L466.6189,271.757961 L461.2189,271.757961 L461.2189,254.957961 C461.2189,253.637955 461.038902,252.507966 460.6789,251.567961 C460.318898,250.627956 459.838903,249.867964 459.2389,249.287961 C458.638897,248.707958 457.948904,248.287962 457.1689,248.027961 C456.388896,247.76796 455.578904,247.637961 454.7389,247.637961 C453.618894,247.637961 452.578905,247.817959 451.6189,248.177961 C450.658895,248.537963 449.818904,249.107957 449.0989,249.887961 C448.378896,250.667965 447.818902,251.657955 447.4189,252.857961 C447.018898,254.057967 446.8189,255.477953 446.8189,257.117961 L446.8189,271.757961 L441.4189,271.757961 L441.4189,243.317961 Z M503.2789,271.517961 C503.2789,273.677972 502.908904,275.647952 502.1689,277.427961 C501.428896,279.20797 500.378907,280.747955 499.0189,282.047961 C497.658893,283.347968 496.01891,284.357958 494.0989,285.077961 C492.17889,285.797965 490.058912,286.157961 487.7389,286.157961 C485.018886,286.157961 482.528911,285.777965 480.2689,285.017961 C478.008889,284.257957 475.85891,282.937971 473.8189,281.057961 L477.4789,276.497961 C478.878907,278.017969 480.398892,279.167957 482.0389,279.947961 C483.678908,280.727965 485.53889,281.117961 487.6189,281.117961 C489.61891,281.117961 491.278893,280.827964 492.5989,280.247961 C493.918907,279.667958 494.968896,278.917966 495.7489,277.997961 C496.528904,277.077957 497.078898,276.027967 497.3989,274.847961 C497.718902,273.667955 497.8789,272.477967 497.8789,271.277961 L497.8789,267.077961 L497.6989,267.077961 C496.658895,268.79797 495.248909,270.067957 493.4689,270.887961 C491.688891,271.707965 489.81891,272.117961 487.8589,272.117961 C485.77889,272.117961 483.848909,271.747965 482.0689,271.007961 C480.288891,270.267957 478.758906,269.247968 477.4789,267.947961 C476.198894,266.647955 475.198904,265.10797 474.4789,263.327961 C473.758896,261.547952 473.3989,259.617972 473.3989,257.537961 C473.3989,255.457951 473.738897,253.50797 474.4189,251.687961 C475.098903,249.867952 476.068894,248.277968 477.3289,246.917961 C478.588906,245.557954 480.108891,244.497965 481.8889,243.737961 C483.668909,242.977957 485.658889,242.597961 487.8589,242.597961 C489.77891,242.597961 491.648891,243.017957 493.4689,243.857961 C495.288909,244.697965 496.718895,245.877954 497.7589,247.397961 L497.8789,247.397961 L497.8789,243.317961 L503.2789,243.317961 L503.2789,271.517961 Z M488.5189,247.637961 C487.078893,247.637961 485.778906,247.887959 484.6189,248.387961 C483.458894,248.887964 482.478904,249.567957 481.6789,250.427961 C480.878896,251.287965 480.258902,252.327955 479.8189,253.547961 C479.378898,254.767967 479.1589,256.097954 479.1589,257.537961 C479.1589,260.417976 479.998892,262.727952 481.6789,264.467961 C483.358908,266.20797 485.638886,267.077961 488.5189,267.077961 C491.398914,267.077961 493.678892,266.20797 495.3589,264.467961 C497.038908,262.727952 497.8789,260.417976 497.8789,257.537961 C497.8789,256.097954 497.658902,254.767967 497.2189,253.547961 C496.778898,252.327955 496.158904,251.287965 495.3589,250.427961 C494.558896,249.567957 493.578906,248.887964 492.4189,248.387961 C491.258894,247.887959 489.958907,247.637961 488.5189,247.637961 L488.5189,247.637961 Z M511.8589,243.317961 L517.2589,243.317961 L517.2589,271.757961 L511.8589,271.757961 L511.8589,243.317961 Z M510.5989,233.117961 C510.5989,232.037956 510.988896,231.107965 511.7689,230.327961 C512.548904,229.547957 513.478895,229.157961 514.5589,229.157961 C515.638905,229.157961 516.568896,229.547957 517.3489,230.327961 C518.128904,231.107965 518.5189,232.037956 518.5189,233.117961 C518.5189,234.197967 518.128904,235.127957 517.3489,235.907961 C516.568896,236.687965 515.638905,237.077961 514.5589,237.077961 C513.478895,237.077961 512.548904,236.687965 511.7689,235.907961 C510.988896,235.127957 510.5989,234.197967 510.5989,233.117961 L510.5989,233.117961 Z M525.8389,243.317961 L531.2389,243.317961 L531.2389,247.697961 L531.3589,247.697961 C532.038903,246.177954 533.218892,244.947966 534.8989,244.007961 C536.578908,243.067956 538.518889,242.597961 540.7189,242.597961 C542.078907,242.597961 543.388894,242.807959 544.6489,243.227961 C545.908906,243.647963 547.008895,244.297957 547.9489,245.177961 C548.888905,246.057966 549.638897,247.187954 550.1989,248.567961 C550.758903,249.947968 551.0389,251.577952 551.0389,253.457961 L551.0389,271.757961 L545.6389,271.757961 L545.6389,254.957961 C545.6389,253.637955 545.458902,252.507966 545.0989,251.567961 C544.738898,250.627956 544.258903,249.867964 543.6589,249.287961 C543.058897,248.707958 542.368904,248.287962 541.5889,248.027961 C540.808896,247.76796 539.998904,247.637961 539.1589,247.637961 C538.038894,247.637961 536.998905,247.817959 536.0389,248.177961 C535.078895,248.537963 534.238904,249.107957 533.5189,249.887961 C532.798896,250.667965 532.238902,251.657955 531.8389,252.857961 C531.438898,254.057967 531.2389,255.477953 531.2389,257.117961 L531.2389,271.757961 L525.8389,271.757961 L525.8389,243.317961 Z M563.2789,259.517961 C563.2789,260.757967 563.548897,261.887956 564.0889,262.907961 C564.628903,263.927966 565.338896,264.797958 566.2189,265.517961 C567.098904,266.237965 568.118894,266.797959 569.2789,267.197961 C570.438906,267.597963 571.638894,267.797961 572.8789,267.797961 C574.558908,267.797961 576.018894,267.407965 577.2589,266.627961 C578.498906,265.847957 579.638895,264.817968 580.6789,263.537961 L584.7589,266.657961 C581.758885,270.537981 577.558927,272.477961 572.1589,272.477961 C569.918889,272.477961 567.888909,272.097965 566.0689,271.337961 C564.248891,270.577957 562.708906,269.527968 561.4489,268.187961 C560.188894,266.847954 559.218903,265.26797 558.5389,263.447961 C557.858897,261.627952 557.5189,259.657972 557.5189,257.537961 C557.5189,255.417951 557.888896,253.44797 558.6289,251.627961 C559.368904,249.807952 560.388893,248.227968 561.6889,246.887961 C562.988906,245.547954 564.538891,244.497965 566.3389,243.737961 C568.138909,242.977957 570.098889,242.597961 572.2189,242.597961 C574.738913,242.597961 576.868891,243.037957 578.6089,243.917961 C580.348909,244.797966 581.778894,245.947954 582.8989,247.367961 C584.018906,248.787968 584.828898,250.387952 585.3289,252.167961 C585.828903,253.94797 586.0789,255.757952 586.0789,257.597961 L586.0789,259.517961 L563.2789,259.517961 Z M580.3189,255.197961 C580.2789,253.997955 580.088902,252.897966 579.7489,251.897961 C579.408898,250.897956 578.898903,250.027965 578.2189,249.287961 C577.538897,248.547957 576.688905,247.967963 575.6689,247.547961 C574.648895,247.127959 573.458907,246.917961 572.0989,246.917961 C570.778893,246.917961 569.568906,247.167959 568.4689,247.667961 C567.368895,248.167964 566.438904,248.817957 565.6789,249.617961 C564.918896,250.417965 564.328902,251.307956 563.9089,252.287961 C563.488898,253.267966 563.2789,254.237956 563.2789,255.197961 L580.3189,255.197961 Z" id="process-engine" fill="#2D8CCC"></path>
                <path d="M80.6,76.5721028 C77.599985,72.6720833 73.800023,69.6721133 69.2,67.5721028 C64.599977,65.4720923 59.8500245,64.4221028 54.95,64.4221028 C48.94997,64.4221028 43.5250242,65.5470916 38.675,67.7971028 C33.8249757,70.0471141 29.6750172,73.1220833 26.225,77.0221028 C22.7749827,80.9221223 20.1000095,85.4970766 18.2,90.7471028 C16.2999905,95.9971291 15.35,101.622073 15.35,107.622103 C15.35,113.222131 16.249991,118.522078 18.05,123.522103 C19.850009,128.522128 22.449983,132.922084 25.85,136.722103 C29.250017,140.522122 33.3999755,143.522092 38.3,145.722103 C43.2000245,147.922114 48.749969,149.022103 54.95,149.022103 C61.0500305,149.022103 66.399977,147.772115 71,145.272103 C75.600023,142.77209 79.499984,139.272125 82.7,134.772103 L94.85,143.922103 C94.049996,145.022108 92.65001,146.597093 90.65,148.647103 C88.64999,150.697113 86.0000165,152.747093 82.7,154.797103 C79.3999835,156.847113 75.4250232,158.647095 70.775,160.197103 C66.1249767,161.747111 60.7500305,162.522103 54.65,162.522103 C46.249958,162.522103 38.6750337,160.922119 31.925,157.722103 C25.1749662,154.522087 19.4250237,150.322129 14.675,145.122103 C9.92497625,139.922077 6.3000125,134.047136 3.8,127.497103 C1.2999875,120.94707 0.05,114.322136 0.05,107.622103 C0.05,99.4220618 1.3999865,91.8471376 4.1,84.8971028 C6.8000135,77.9470681 10.5749757,71.9471281 15.425,66.8971028 C20.2750242,61.8470776 26.099966,57.9221168 32.9,55.1221028 C39.700034,52.3220888 47.199959,50.9221028 55.4,50.9221028 C62.400035,50.9221028 69.2749662,52.2720893 76.025,54.9721028 C82.7750337,57.6721163 88.2999785,61.8220748 92.6,67.4221028 L80.6,76.5721028 Z M237.35,53.6221028 L274.7,53.6221028 C281.500034,53.6221028 287.099978,54.5470936 291.5,56.3971028 C295.900022,58.2471121 299.374987,60.5970886 301.925,63.4471028 C304.475013,66.2971171 306.249995,69.4970851 307.25,73.0471028 C308.250005,76.5971206 308.75,80.0220863 308.75,83.3221028 C308.75,86.7221198 308.150006,89.9970871 306.95,93.1471028 C305.749994,96.2971186 304.025011,99.1470901 301.775,101.697103 C299.524989,104.247116 296.775016,106.397094 293.525,108.147103 C290.274984,109.897112 286.65002,110.972101 282.65,111.372103 L312.8,159.822103 L294.8,159.822103 L267.8,113.022103 L251.75,113.022103 L251.75,159.822103 L237.35,159.822103 L237.35,53.6221028 Z M251.75,100.422103 L270.65,100.422103 C273.450014,100.422103 276.224986,100.197105 278.975,99.7471028 C281.725014,99.2971006 284.174989,98.4721088 286.325,97.2721028 C288.475011,96.0720968 290.199993,94.3471141 291.5,92.0971028 C292.800006,89.8470916 293.45,86.9221208 293.45,83.3221028 C293.45,79.7220848 292.800006,76.7971141 291.5,74.5471028 C290.199993,72.2970916 288.475011,70.5721088 286.325,69.3721028 C284.174989,68.1720968 281.725014,67.3471051 278.975,66.8971028 C276.224986,66.4471006 273.450014,66.2221028 270.65,66.2221028 L251.75,66.2221028 L251.75,100.422103 Z M329,53.6221028 L397.55,53.6221028 L397.55,67.1221028 L343.4,67.1221028 L343.4,98.7721028 L393.8,98.7721028 L393.8,112.272103 L343.4,112.272103 L343.4,146.322103 L400.25,146.322103 L400.25,159.822103 L329,159.822103 L329,53.6221028 Z M411.8,146.322103 L472.25,67.1221028 L413.6,67.1221028 L413.6,53.6221028 L490.25,53.6221028 L490.25,67.1221028 L430.1,146.322103 L491.15,146.322103 L491.15,159.822103 L411.8,159.822103 L411.8,146.322103 Z M558.35,162.522103 C550.249959,162.522103 542.800034,161.097117 536,158.247103 C529.199966,155.397089 523.375024,151.472128 518.525,146.472103 C513.674976,141.472078 509.875014,135.572137 507.125,128.772103 C504.374986,121.972069 503,114.622142 503,106.722103 C503,98.8220633 504.374986,91.4721368 507.125,84.6721028 C509.875014,77.8720688 513.674976,71.9721278 518.525,66.9721028 C523.375024,61.9720778 529.199966,58.0471171 536,55.1971028 C542.800034,52.3470886 550.249959,50.9221028 558.35,50.9221028 C566.45004,50.9221028 573.899966,52.3470886 580.7,55.1971028 C587.500034,58.0471171 593.324976,61.9720778 598.175,66.9721028 C603.025024,71.9721278 606.824986,77.8720688 609.575,84.6721028 C612.325014,91.4721368 613.7,98.8220633 613.7,106.722103 C613.7,114.622142 612.325014,121.972069 609.575,128.772103 C606.824986,135.572137 603.025024,141.472078 598.175,146.472103 C593.324976,151.472128 587.500034,155.397089 580.7,158.247103 C573.899966,161.097117 566.45004,162.522103 558.35,162.522103 L558.35,162.522103 Z M558.35,149.022103 C564.45003,149.022103 569.949975,147.897114 574.85,145.647103 C579.750024,143.397092 583.949982,140.372122 587.45,136.572103 C590.950017,132.772084 593.64999,128.297129 595.55,123.147103 C597.450009,117.997077 598.4,112.522132 598.4,106.722103 C598.4,100.922074 597.450009,95.4471286 595.55,90.2971028 C593.64999,85.1470771 590.950017,80.6721218 587.45,76.8721028 C583.949982,73.0720838 579.750024,70.0471141 574.85,67.7971028 C569.949975,65.5470916 564.45003,64.4221028 558.35,64.4221028 C552.249969,64.4221028 546.750024,65.5470916 541.85,67.7971028 C536.949975,70.0471141 532.750017,73.0720838 529.25,76.8721028 C525.749982,80.6721218 523.050009,85.1470771 521.15,90.2971028 C519.24999,95.4471286 518.3,100.922074 518.3,106.722103 C518.3,112.522132 519.24999,117.997077 521.15,123.147103 C523.050009,128.297129 525.749982,132.772084 529.25,136.572103 C532.750017,140.372122 536.949975,143.397092 541.85,145.647103 C546.750024,147.897114 552.249969,149.022103 558.35,149.022103 L558.35,149.022103 Z M634.4,53.6221028 L648.8,53.6221028 L648.8,159.822103 L634.4,159.822103 L634.4,53.6221028 Z M673.7,53.6221028 L710.75,53.6221028 C718.250037,53.6221028 724.824972,54.4720943 730.475,56.1721028 C736.125028,57.8721113 741.024979,60.1470886 745.175,62.9971028 C749.325021,65.8471171 752.774986,69.1220843 755.525,72.8221028 C758.275014,76.5221213 760.449992,80.3220833 762.05,84.2221028 C763.650008,88.1221223 764.799997,92.0220833 765.5,95.9221028 C766.200003,99.8221223 766.55,103.422086 766.55,106.722103 C766.55,113.522137 765.300013,120.097071 762.8,126.447103 C760.299988,132.797135 756.600025,138.447078 751.7,143.397103 C746.799975,148.347128 740.725036,152.322088 733.475,155.322103 C726.224964,158.322118 717.850047,159.822103 708.35,159.822103 L673.7,159.822103 L673.7,53.6221028 Z M688.1,146.322103 L706.25,146.322103 C712.350031,146.322103 718.124973,145.497111 723.575,143.847103 C729.025027,142.197095 733.799979,139.722119 737.9,136.422103 C742.000021,133.122086 745.249988,128.997128 747.65,124.047103 C750.050012,119.097078 751.25,113.322136 751.25,106.722103 C751.25,103.322086 750.700005,99.3471256 749.6,94.7971028 C748.499994,90.2470801 746.425015,85.9221233 743.375,81.8221028 C740.324985,77.7220823 736.100027,74.2471171 730.7,71.3971028 C725.299973,68.5470886 718.300043,67.1221028 709.7,67.1221028 L688.1,67.1221028 L688.1,146.322103 Z" id="C---REZOID" fill="#308CCB"></path>
                <path d="M159.293,48.215 C169.438,69.869 172.265,77.684 172.72,102.213 C172.813,107.224 171.354,112.813 168.879,117.141 C167.108,120.236 162.273,123.604 159.105,123.338 C155.556,123.032 151.168,119.446 149.221,116.088 C144.242,107.489 145.546,98.473 149.818,89.662 C151.726,85.725 153.766,81.849 155.567,77.858 C158.115,72.207 158.368,66.259 156.99,60.281 C156.047,56.192 154.208,52.505 152.293,48.864 C125.493,53.095 105,76.29 105,104.279 C105,135.268 130.121,160.389 161.111,160.389 C192.1,160.389 217.221,135.268 217.221,104.279 C217.221,73.29 192.1,48.168 161.111,48.168 C160.501,48.168 159.898,48.195 159.293,48.215 Z" id="Fill-2" fill="#308CCB"></path>
                <path d="M158.555408,45.354 C155.806408,39.512 152.326408,33.843 151.372408,27.359 C150.057408,18.431 155.353408,8.757 153.117408,0.168 C152.917408,0.292 152.606408,0.339 152.529408,0.56 C145.879408,19.789 145.417408,24.062 146.382408,32.188 C147.090408,38.156 149.954408,43.214 152.664408,48.365 C154.953408,48.004 157.291408,47.791 159.664408,47.716 C159.303408,46.945 158.935408,46.161 158.555408,45.354" id="Fill-3" fill="#308CCB"></path>
            </g>
        </g>
    </g>
</svg>